<svg xmlns="http://www.w3.org/2000/svg" xmlns:xlink="http://www.w3.org/1999/xlink" version="1.1" id="Layer_1" x="0px" y="0px" viewBox="0 0 211.3 51.6" style="enable-background:new 0 0 211.3 51.6;" xml:space="preserve" width="211.3"  height="51.6" >
<style type="text/css">
	.st0{fill:#FFFFFF;}
</style>
<g>
	<path class="st0" d="M57.5,8.4L30.1,0.1c-0.9-0.3-1.8,0.2-2.1,1.1l-2,6.5L12.6,3.7c-0.9-0.3-1.8,0.2-2.1,1.1L0.1,39   c-0.3,0.9,0.2,1.8,1.1,2.1l34.2,10.4c0.9,0.3,1.8-0.2,2.1-1.1l4.1-13.3l6.5,2c0.9,0.3,1.8-0.2,2.1-1.1l8.4-27.4   C58.9,9.7,58.4,8.7,57.5,8.4z M34.8,45.7c-0.2,0.7-1,1.2-1.8,0.9L5.9,38.4c-0.7-0.2-1.2-1-0.9-1.8l8.3-27.1c0.2-0.7,1-1.2,1.8-0.9   l9.8,3l-5.2,17c-0.3,0.9,0.2,1.8,1.1,2.1l17,5.2L34.8,45.7z M28.6,12.7l13.5,4.1c0.7,0.2,1.2,1,0.9,1.8l-4.1,13.5L25.4,28   c-0.7-0.2-1.2-1-0.9-1.8L28.6,12.7z M53.7,12.9l-6.2,20.3c-0.2,0.7-1,1.2-1.8,0.9l-3-0.9l5.2-17c0.3-0.9-0.2-1.8-1.1-2.1l-17-5.2   l0.9-3c0.2-0.7,1-1.2,1.8-0.9l20.3,6.2C53.5,11.4,53.9,12.2,53.7,12.9z"/>
	<rect x="66.3" y="21.1" class="st0" width="4.3" height="17"/>
	<path class="st0" d="M68.5,14c-1.5,0-2.6,1.1-2.6,2.5c0,1.4,1.1,2.5,2.6,2.5c1.5,0,2.6-1.1,2.6-2.5C71.1,15.2,70,14,68.5,14z"/>
	<path class="st0" d="M82,20.9c-2.2,0-4,0.9-5.1,2.4v-2.1h-4.3v17h4.3v-9.4c0-2.7,1.5-4.2,3.8-4.2c2.3,0,3.8,1.5,3.8,4.2v9.4h4.3   v-10C88.7,23.5,85.9,20.9,82,20.9z"/>
	<path class="st0" d="M95.5,32.9v-8.2h3.8v-3.5h-3.8v-4.2h-4.3v4.2h-2v3.5h2v8.2c0,3.9,2.2,5.3,5.4,5.3h2.7v-3.6h-2   C96,34.5,95.5,34,95.5,32.9z"/>
	<path class="st0" d="M107.6,20.8c-5,0-8.5,3.4-8.5,8.8c0,5.3,3.6,8.8,8.5,8.8c4.2,0,7-2.5,8-5.6h-4.6c-0.6,1.1-1.6,2.1-3.4,2.1   c-2.2,0-3.9-1.4-4.1-3.9h12.5c0.1-0.6,0.1-1.1,0.1-1.7C116,24.2,112.5,20.8,107.6,20.8z M103.4,28c0.3-2.3,2-3.7,4-3.7   c2.2,0,4,1.4,4.1,3.7H103.4z"/>
	<path class="st0" d="M136.4,20.9c-2.2,0-4,0.9-5.1,2.4v-2.1h-4.3v17h4.3v-9.4c0-2.7,1.5-4.2,3.8-4.2c2.3,0,3.8,1.5,3.8,4.2v9.4h4.3   v-10C143.2,23.5,140.3,20.9,136.4,20.9z"/>
	<path class="st0" d="M157.3,23.5c-1-1.4-2.9-2.7-5.6-2.7c-4.3,0-7.8,3.4-7.8,8.7c0,5.3,3.4,8.9,7.7,8.9c2.7,0,4.6-1.3,5.7-2.8v2.5   h4.3v-17h-4.3V23.5z M152.7,34.6c-2.3,0-4.5-1.8-4.5-5.1c0-3.2,2.2-5,4.5-5c2.4,0,4.5,1.8,4.5,5C157.3,32.9,155.1,34.6,152.7,34.6z   "/>
	<path class="st0" d="M168.5,16.9h-4.3v4.2h-2v3.5h2v8.2c0,3.9,2.2,5.3,5.4,5.3h2.7v-3.6h-2c-1.4,0-1.8-0.5-1.8-1.6v-8.2h3.8v-3.5   h-3.8V16.9z"/>
	<path class="st0" d="M175.3,19.1c1.5,0,2.6-1.1,2.6-2.5c0-1.4-1.1-2.5-2.6-2.5c-1.5,0-2.6,1.1-2.6,2.5   C172.7,18,173.8,19.1,175.3,19.1z"/>
	<rect x="173.1" y="21.1" class="st0" width="4.3" height="17"/>
	<polygon class="st0" points="190.8,21.1 186.5,34.2 182.2,21.1 177.5,21.1 183.8,38.2 189,38.2 195.4,21.1  "/>
	<path class="st0" d="M211.3,29.3c0-5.1-3.5-8.4-8.4-8.4c-5,0-8.5,3.4-8.5,8.8c0,5.3,3.6,8.8,8.5,8.8c4.2,0,7-2.5,8-5.6h-4.6   c-0.6,1.1-1.6,2.1-3.4,2.1c-2.2,0-3.9-1.4-4.1-3.9h12.5C211.3,30.4,211.3,29.8,211.3,29.3z M198.8,28c0.3-2.3,2-3.7,4-3.7   c2.2,0,4,1.4,4.1,3.7H198.8z"/>
	<path class="st0" d="M126.4,20.9c-2.4,0-4.2,1.1-5.2,2.9v-2.6h-4.3v17h4.3v-8.5c0-3.3,1.5-4.3,4.1-4.3h0.3L126.4,20.9z"/>
</g>
</svg>